<svg width="55" height="48" viewBox="0 0 55 48" fill="none" xmlns="http://www.w3.org/2000/svg">
<g clip-path="url(#clip0_0_579)">
<path d="M26.5402 22.5424C26.5128 22.5151 26.4854 22.5424 26.458 22.5424C26.4307 22.5698 26.4307 22.5972 26.458 22.6246L26.8689 22.9807L27.2524 23.3368L27.4989 23.5833C27.5263 23.6107 27.5263 23.6107 27.5537 23.6381C27.5811 23.6655 27.6084 23.6928 27.6358 23.7202L27.7454 23.8572C27.7728 23.8846 27.8002 23.912 27.8276 23.9394C27.8823 23.9941 27.9371 24.0489 27.9645 24.1037C27.9919 24.1585 28.0467 24.1859 28.0741 24.2407C28.1836 24.3776 28.2932 24.5146 28.4028 24.6789L28.5123 24.8432V24.2954C28.4302 24.2133 28.348 24.1311 28.2658 24.0215C28.2384 23.9941 28.1836 23.9394 28.1563 23.912C28.1015 23.8572 28.0467 23.8024 27.9919 23.7476C27.9645 23.7202 27.9371 23.6928 27.9097 23.6655L27.7728 23.5285C27.7454 23.5011 27.718 23.4737 27.6906 23.4463C27.6632 23.4463 27.6632 23.4189 27.6358 23.4189L27.3619 23.1724L26.9511 22.8437L26.5402 22.5424Z" fill="#5CA736"/>
<path d="M41.8798 3.97161L18.1871 0L2.9032 18.5159L11.3121 41.0309L35.0048 45.0025L50.2887 26.4592L41.8798 3.97161Z" fill="url(#paint0_linear_0_579)"/>
<path d="M4.43652 39.004H42.8105L40.9206 31.6086H4.43652V39.004Z" fill="url(#paint1_linear_0_579)"/>
<path d="M11.1198 40.483L4.43652 39.0039H10.5446L11.1198 40.483Z" fill="#275EA0"/>
<path d="M45.7712 11.6957L48.7293 9.14844H44.8125L45.7712 11.6957Z" fill="#275EA0"/>
<path d="M48.7262 4.40991H9.96875L12.2422 11.8053H48.7262V4.40991Z" fill="url(#paint2_linear_0_579)"/>
<path d="M42.7598 23.3658C43.7733 24.4888 46.348 23.8588 48.5118 21.9415C50.6757 20.0241 51.6069 17.5316 50.5935 16.4086L49.3883 15.0391L41.582 22.0236L42.7598 23.3658Z" fill="#ECA700"/>
<path d="M46.0703 18.7616L48.7272 21.7472C49.6859 20.8433 50.398 19.8299 50.7267 18.8986L48.5902 16.5156L46.0703 18.7616Z" fill="#FFD02D"/>
<path d="M48.5908 16.4894L50.7273 18.8724C50.8916 18.4615 50.9738 18.078 50.9738 17.6946L49.303 15.832L48.5908 16.4894Z" fill="#FFBB2D"/>
<path d="M48.7284 21.7199L46.0715 18.7344L45.3594 19.3917L48.0162 22.3499C48.1806 22.213 48.3723 22.076 48.5367 21.9117C48.5914 21.8569 48.6462 21.8021 48.7284 21.7199Z" fill="#FFBB2D"/>
<path d="M41.6368 22.1057C42.6503 23.2288 45.225 22.5988 47.3888 20.6814C49.5527 18.7641 50.4839 16.2716 49.4705 15.1486L49.3883 15.0664L41.582 22.051L41.6368 22.1057Z" fill="#FFFFB9"/>
<path d="M47.2849 20.5587C49.4409 18.6353 50.3724 16.161 49.3654 15.0322C48.3583 13.9034 45.7942 14.5475 43.6382 16.471C41.4822 18.3944 40.5507 20.8687 41.5578 21.9975C42.5648 23.1263 45.1289 22.4821 47.2849 20.5587Z" fill="#F6DE3E"/>
<path d="M42.3749 21.1197C41.7997 20.4623 42.3749 18.6545 44.1553 17.0659C45.9357 15.4773 47.8256 15.0938 48.4008 15.7512C48.976 16.4085 48.4008 18.2163 46.6204 19.8049C44.84 21.3936 42.9501 21.7497 42.3749 21.1197Z" fill="#F2CD30"/>
<path d="M42.5385 21.2292C41.9633 20.5992 42.5385 18.7914 44.2915 17.2302C46.0445 15.6689 47.9071 15.2855 48.4549 15.9428C48.4823 15.9702 48.5096 15.9976 48.537 16.0524C48.5096 15.9428 48.4549 15.8333 48.3727 15.7511C47.7975 15.0937 45.9076 15.4772 44.1272 17.0658C42.3468 18.6545 41.7716 20.4896 42.3468 21.1196C42.429 21.2018 42.5112 21.2566 42.6207 21.3114C42.5933 21.284 42.5659 21.2566 42.5385 21.2292Z" fill="#ECA700"/>
<path d="M48.4297 17.366L49.5253 17.5851C49.6896 17.1743 49.7718 16.7908 49.7992 16.4347L48.6214 16.1882C48.6488 16.4895 48.594 16.9004 48.4297 17.366Z" fill="#FFEF65"/>
<path d="M44.6774 16.6003C44.787 16.5182 44.8691 16.4634 44.9787 16.3812C45.1156 16.2991 45.2252 16.2169 45.3621 16.1347C45.4991 16.0525 45.6361 15.9704 45.773 15.9156C45.8004 15.8882 45.8278 15.8882 45.8552 15.8608C45.9921 15.806 46.1017 15.7512 46.2113 15.6965L44.9513 15.45C44.513 15.7239 44.1022 16.0251 43.6639 16.4086L44.6774 16.6003Z" fill="#FFEF65"/>
<path d="M44.9803 16.6825L48.4042 17.3673C48.5685 16.929 48.6507 16.5182 48.5959 16.1895L46.6512 15.806C46.1581 15.9704 45.5829 16.2443 44.9803 16.6825Z" fill="#F4DB48"/>
<path d="M44.9809 16.6825C45.5561 16.2717 46.1313 15.9704 46.6517 15.806L46.2409 15.7239C46.1313 15.7787 45.9944 15.8334 45.8848 15.8882C45.8574 15.9156 45.83 15.9156 45.8026 15.943C45.6657 16.0252 45.5287 16.08 45.3918 16.1621C45.2548 16.2443 45.1453 16.3265 45.0083 16.4086C44.8988 16.4634 44.8166 16.5456 44.707 16.6278L44.9809 16.6825Z" fill="#FFBB2D"/>
<path d="M47.4718 20.4076L46.1844 20.1611C45.8831 20.3803 45.6092 20.572 45.3353 20.7363L46.787 21.0102C46.9787 20.8733 47.1431 20.7089 47.3348 20.5446C47.3622 20.5172 47.417 20.4624 47.4718 20.4076Z" fill="#FFEF65"/>
<path d="M42.2125 19.9981C42.2125 19.9707 42.2399 19.916 42.2399 19.8886C42.2673 19.7242 42.322 19.5873 42.4042 19.4229V19.3955L41.5551 19.2312C41.4455 19.4777 41.3634 19.6968 41.3086 19.9434L42.2125 20.1351C42.2125 20.0803 42.2125 20.0255 42.2125 19.9981Z" fill="#FFEF65"/>
<path d="M42.6215 19.449C42.5119 19.6955 42.4297 19.942 42.4023 20.1611L45.3331 20.7363C45.607 20.572 45.9083 20.3802 46.1822 20.1611L42.6215 19.449Z" fill="#F4DB48"/>
<path d="M42.4027 20.1348C42.4575 19.9157 42.5123 19.6692 42.6218 19.4227L42.4027 19.3679V19.3953C42.3479 19.5597 42.2932 19.724 42.2384 19.8609C42.2384 19.8883 42.211 19.9431 42.211 19.9705C42.211 19.9979 42.1836 20.0527 42.1836 20.0801L42.4027 20.1348Z" fill="#FFBB2D"/>
<path d="M42.8421 18.5434C42.9243 18.4064 43.0338 18.2695 43.1434 18.1051C43.2255 17.9956 43.3077 17.886 43.4173 17.7765C43.4995 17.6669 43.609 17.5847 43.6912 17.4752C43.8281 17.3108 43.9925 17.1739 44.1568 17.0369C44.2116 16.9821 44.2664 16.9274 44.3212 16.9C44.4307 16.7904 44.5403 16.7082 44.6772 16.6261L43.6912 16.4343C43.6638 16.4617 43.6638 16.4617 43.6364 16.4891C42.6504 17.3656 41.9382 18.3243 41.5273 19.2555L42.3764 19.4199C42.4038 19.3377 42.4586 19.2555 42.486 19.1734C42.623 18.9542 42.7325 18.7351 42.8421 18.5434Z" fill="#FFF697"/>
<path d="M46.1841 20.1611L47.4714 20.4076C48.4301 19.5037 49.1422 18.4903 49.4983 17.5864L48.4027 17.3672C48.1014 18.1068 47.5262 18.9833 46.5949 19.805C46.4854 19.9146 46.321 20.0241 46.1841 20.1611Z" fill="#FFF697"/>
<path d="M44.3193 17.2048C43.4976 17.9443 42.9224 18.7387 42.6211 19.4234L46.1818 20.1356C46.3188 20.026 46.4831 19.8891 46.6201 19.7795C47.524 18.9578 48.1266 18.1087 48.4279 17.3417L45.0041 16.657C44.7575 16.8213 44.5384 17.0131 44.3193 17.2048Z" fill="#F9E36B"/>
<path d="M44.3197 17.2049C44.5388 17.0132 44.7579 16.8214 44.977 16.6571L44.6757 16.6023C44.5662 16.6845 44.4566 16.794 44.3197 16.8762C44.2649 16.931 44.2101 16.9584 44.1553 17.0132C43.991 17.1501 43.8266 17.3144 43.6897 17.4514C43.5801 17.561 43.498 17.6431 43.4158 17.7527C43.3336 17.8623 43.2241 17.9718 43.1419 18.0814C43.0323 18.2183 42.9228 18.3553 42.8406 18.5196C42.7036 18.7114 42.5941 18.9031 42.5119 19.0948C42.4571 19.177 42.4297 19.2592 42.4023 19.3413L42.6215 19.3961C42.9228 18.7387 43.498 17.9444 44.3197 17.2049Z" fill="#FFD02D"/>
<path d="M45.0304 25.9908C44.1813 27.2508 45.4413 29.579 47.8516 31.195C50.262 32.8111 52.8915 33.085 53.7406 31.825L54.754 30.3185L46.0439 24.4844L45.0304 25.9908Z" fill="#ECA700"/>
<path d="M50.3163 28.0479L48.0977 31.3621C49.2207 32.0742 50.3711 32.4851 51.3571 32.5947L53.1375 29.9378L50.3163 28.0479Z" fill="#FFD02D"/>
<path d="M53.1398 29.9377L51.3594 32.5946C51.7976 32.6494 52.2085 32.622 52.5646 32.5672L53.9615 30.4856L53.1398 29.9377Z" fill="#FFBB2D"/>
<path d="M48.099 31.3621L50.3176 28.0478L49.5233 27.5L47.3047 30.7869C47.469 30.9238 47.6608 31.0608 47.8525 31.1703C47.9347 31.2525 48.0168 31.3073 48.099 31.3621Z" fill="#FFBB2D"/>
<path d="M45.9875 24.5939C45.1383 25.8539 46.3983 28.1821 48.8087 29.7981C51.219 31.4142 53.8485 31.6881 54.6976 30.4281L54.7798 30.3185L46.0696 24.4844L45.9875 24.5939Z" fill="#FFFFB9"/>
<path d="M48.8634 29.6898C46.453 28.0738 45.193 25.7456 46.0421 24.4856C46.8912 23.2256 49.5207 23.4995 51.9311 25.1156C54.3414 26.7316 55.6014 29.0598 54.7523 30.3198C53.9032 31.5797 51.2737 31.3058 48.8634 29.6898Z" fill="#F6DE3E"/>
<path d="M47.1115 25.0609C47.6045 24.3487 49.5219 24.4583 51.494 25.773C53.4661 27.0878 54.3152 28.8408 53.8222 29.5529C53.3291 30.2651 51.4118 30.1555 49.4397 28.8408C47.4676 27.4986 46.6459 25.773 47.1115 25.0609Z" fill="#F2CD30"/>
<path d="M47.0587 25.2528C47.5243 24.5406 49.4143 24.6502 51.359 25.9649C53.3037 27.2797 54.1254 28.9779 53.6598 29.69C53.6324 29.7174 53.605 29.7448 53.5776 29.7722C53.6872 29.7174 53.7693 29.6353 53.8241 29.5531C54.3171 28.8409 53.468 27.0879 51.4959 25.7732C49.5238 24.4585 47.6065 24.3215 47.1135 25.061C47.0587 25.1432 47.0039 25.2528 47.0039 25.3623C47.0313 25.335 47.0313 25.2802 47.0587 25.2528Z" fill="#ECA700"/>
<path d="M52.2617 29.965L52.3165 31.088C52.7547 31.1428 53.1382 31.1428 53.4943 31.088L53.4395 29.8828C53.1656 29.9924 52.7547 30.0472 52.2617 29.965Z" fill="#FFEF65"/>
<path d="M52.0705 26.1853C52.18 26.2674 52.2622 26.3496 52.3444 26.4318C52.4539 26.5414 52.5635 26.6509 52.673 26.7331C52.7826 26.8426 52.8922 26.9522 53.0017 27.0892C53.0291 27.1166 53.0565 27.1439 53.0565 27.1713C53.1387 27.2809 53.2208 27.3905 53.303 27.5L53.2208 26.2127C52.8648 25.8566 52.4265 25.5279 51.9883 25.1992L52.0705 26.1853Z" fill="#FFEF65"/>
<path d="M52.0696 26.4853L52.2613 29.9639C52.7269 30.0187 53.1378 29.9913 53.4391 29.8543L53.3295 27.8822C53.0556 27.4166 52.6174 26.9509 52.0696 26.4853Z" fill="#F4DB48"/>
<path d="M52.0696 26.4852C52.6174 26.9509 53.0282 27.4165 53.3295 27.8821L53.3022 27.4439C53.22 27.3343 53.1378 27.2248 53.0556 27.1152C53.0282 27.0878 53.0009 27.0604 53.0009 27.033C52.8913 26.9235 52.7817 26.8139 52.6722 26.677C52.5626 26.5674 52.453 26.4578 52.3435 26.3757C52.2613 26.2935 52.1518 26.2113 52.0696 26.1292V26.4852Z" fill="#FFBB2D"/>
<path d="M49.0842 29.8269L49.002 28.5122C48.7007 28.293 48.4542 28.0465 48.2351 27.8274L48.3173 29.3065C48.509 29.4434 48.7007 29.5804 48.8925 29.7173C48.9473 29.7447 49.002 29.7995 49.0842 29.8269Z" fill="#FFEF65"/>
<path d="M48.1526 24.6227C48.18 24.6227 48.2348 24.6227 48.2622 24.6227C48.4265 24.6227 48.5909 24.6227 48.7552 24.6501H48.7826L48.7278 23.7736C48.4813 23.7188 48.2074 23.7188 47.9883 23.6914L48.0431 24.5953C48.0978 24.6227 48.1252 24.6227 48.1526 24.6227Z" fill="#FFEF65"/>
<path d="M48.8099 24.8985C48.5359 24.8438 48.2894 24.8438 48.0703 24.8438L48.2347 27.8293C48.4538 28.0484 48.7277 28.2949 49.0016 28.5141L48.8099 24.8985Z" fill="#F4DB48"/>
<path d="M48.0703 24.8402C48.2894 24.8402 48.5359 24.8402 48.8099 24.8949V24.6758H48.7825C48.6181 24.6484 48.4264 24.6484 48.2894 24.6484C48.262 24.6484 48.2073 24.6484 48.1799 24.6484C48.1525 24.6484 48.0977 24.6484 48.0703 24.6484V24.8402Z" fill="#FFBB2D"/>
<path d="M49.7135 24.8966C49.8778 24.9514 50.0422 25.0062 50.2065 25.0883C50.3435 25.1431 50.453 25.1979 50.59 25.2801C50.6995 25.3348 50.8365 25.417 50.946 25.4718C51.1378 25.5814 51.3021 25.6909 51.4939 25.8005C51.5486 25.8553 51.6034 25.8826 51.6856 25.9374C51.8225 26.0196 51.9321 26.1018 52.0417 26.2113L51.9869 25.1979C51.9595 25.1979 51.9595 25.1705 51.9321 25.1705C50.8365 24.431 49.7135 23.9927 48.7274 23.8284L48.7822 24.7049C48.8644 24.7049 48.9739 24.7323 49.0561 24.7596C49.2752 24.7596 49.4944 24.8144 49.7135 24.8966Z" fill="#FFF697"/>
<path d="M49 28.512L49.0822 29.8267C50.2052 30.5389 51.3282 30.9771 52.3416 31.0867L52.2869 29.9637C51.4925 29.8541 50.5065 29.498 49.493 28.8406C49.3013 28.7311 49.1643 28.6215 49 28.512Z" fill="#FFF697"/>
<path d="M51.3833 25.9667C50.452 25.3367 49.5481 25.008 48.8086 24.8711L49.0003 28.4866C49.1373 28.5962 49.3016 28.7058 49.466 28.8153C50.4794 29.5001 51.4655 29.8562 52.2598 29.9383L52.0681 26.4597C51.8763 26.3228 51.6298 26.1311 51.3833 25.9667Z" fill="#F9E36B"/>
<path d="M51.3833 25.9632C51.6299 26.1275 51.849 26.2919 52.0681 26.4836L52.0407 26.1823C51.9311 26.1001 51.7942 25.9906 51.6846 25.9084C51.6299 25.8536 51.5751 25.8262 51.4929 25.7714C51.3012 25.6345 51.1094 25.5249 50.9451 25.4428C50.8355 25.3606 50.6986 25.3058 50.589 25.251C50.4521 25.1962 50.3425 25.1141 50.2056 25.0593C50.0412 24.9771 49.8769 24.9223 49.7125 24.8676C49.4934 24.7854 49.2743 24.7306 49.0552 24.7032C48.973 24.6758 48.8634 24.6758 48.7812 24.6484V24.8676C49.5482 25.0045 50.4795 25.3606 51.3833 25.9632Z" fill="#FFD02D"/>
<path d="M0 3.67038L5.28635 0.109619L8.18974 9.28542L0 3.67038Z" fill="url(#paint3_linear_0_579)"/>
<path d="M0.766602 11.6683L1.04051 9.34015L6.4912 11.1479L0.766602 11.6683Z" fill="url(#paint4_linear_0_579)"/>
<path d="M53.3577 43.7713L48.0714 47.3594L45.168 38.1562L53.3577 43.7713Z" fill="url(#paint5_linear_0_579)"/>
<path d="M52.5605 35.7734L52.314 38.129L46.8359 36.2939L52.5605 35.7734Z" fill="url(#paint6_linear_0_579)"/>
<path d="M13.2425 20.9295C12.5717 20.9295 11.9637 20.7854 11.4183 20.497C10.8792 20.2024 10.4529 19.798 10.1395 19.284C9.83229 18.7637 9.67871 18.1776 9.67871 17.5256C9.67871 16.8737 9.83229 16.2907 10.1395 15.7766C10.4529 15.2563 10.8792 14.852 11.4183 14.5636C11.9637 14.269 12.5749 14.1217 13.2519 14.1217C13.8223 14.1217 14.3364 14.222 14.794 14.4226C15.2579 14.6232 15.6465 14.9116 15.96 15.2877L14.9821 16.1904C14.537 15.6763 13.9853 15.4193 13.3271 15.4193C12.9196 15.4193 12.5561 15.5102 12.2363 15.692C11.9166 15.8675 11.6659 16.1152 11.4841 16.4349C11.3086 16.7546 11.2208 17.1182 11.2208 17.5256C11.2208 17.9331 11.3086 18.2967 11.4841 18.6164C11.6659 18.9361 11.9166 19.1868 12.2363 19.3686C12.5561 19.5441 12.9196 19.6319 13.3271 19.6319C13.9853 19.6319 14.537 19.3718 14.9821 18.8515L15.96 19.7542C15.6465 20.1365 15.2579 20.428 14.794 20.6286C14.3301 20.8292 13.8129 20.9295 13.2425 20.9295Z" fill="white"/>
<path d="M21.1949 19.4062H18.1389L17.5559 20.8167H15.995L18.9288 14.2345H20.4333L23.3764 20.8167H21.7779L21.1949 19.4062ZM20.7154 18.2497L19.6716 15.7296L18.6279 18.2497H20.7154Z" fill="white"/>
<path d="M26.222 20.9295C25.7017 20.9295 25.1971 20.8606 24.7081 20.7227C24.2255 20.5785 23.8368 20.3936 23.5422 20.1679L24.0593 19.0207C24.3414 19.2276 24.6768 19.3937 25.0655 19.5191C25.4541 19.6444 25.8428 19.7071 26.2314 19.7071C26.664 19.7071 26.9837 19.6444 27.1906 19.5191C27.3974 19.3874 27.5009 19.215 27.5009 19.0019C27.5009 18.8452 27.4382 18.7167 27.3128 18.6164C27.1937 18.5098 27.037 18.4252 26.8426 18.3625C26.6546 18.2998 26.3976 18.2309 26.0716 18.1556C25.5701 18.0365 25.1595 17.9174 24.8398 17.7983C24.5201 17.6792 24.2443 17.488 24.0123 17.2247C23.7866 16.9614 23.6738 16.6104 23.6738 16.1716C23.6738 15.7892 23.7772 15.4444 23.9841 15.1372C24.191 14.8238 24.5013 14.5762 24.915 14.3944C25.335 14.2126 25.8459 14.1217 26.4477 14.1217C26.8677 14.1217 27.2783 14.1719 27.6795 14.2722C28.0807 14.3725 28.4318 14.5166 28.7327 14.7047L28.2625 15.8613C27.6544 15.5165 27.0464 15.3441 26.4383 15.3441C26.012 15.3441 25.6955 15.4131 25.4886 15.551C25.288 15.6889 25.1877 15.8707 25.1877 16.0964C25.1877 16.322 25.3037 16.4913 25.5356 16.6041C25.7738 16.7107 26.1343 16.8173 26.617 16.9238C27.1185 17.0429 27.5291 17.162 27.8488 17.2811C28.1685 17.4002 28.4412 17.5883 28.6668 17.8453C28.8988 18.1023 29.0148 18.4503 29.0148 18.8891C29.0148 19.2652 28.9082 19.61 28.6951 19.9234C28.4882 20.2306 28.1747 20.4751 27.7547 20.6568C27.3347 20.8386 26.8238 20.9295 26.222 20.9295Z" fill="white"/>
<path d="M36.0924 14.2345V20.8167H34.5691V18.118H31.5789V20.8167H30.0556V14.2345H31.5789V16.8298H34.5691V14.2345H36.0924Z" fill="white"/>
<path d="M14.9256 25.6111C15.3018 25.7302 15.5964 25.9308 15.8095 26.2129C16.0227 26.4887 16.1292 26.8304 16.1292 27.2378C16.1292 27.8146 15.9036 28.2596 15.4522 28.5731C15.0071 28.8802 14.3552 29.0338 13.4964 29.0338H10.0924V22.4517H13.3083C14.1107 22.4517 14.725 22.6053 15.1513 22.9124C15.5838 23.2196 15.8001 23.6365 15.8001 24.163C15.8001 24.4827 15.7218 24.768 15.565 25.0187C15.4146 25.2695 15.2015 25.4669 14.9256 25.6111ZM11.6063 23.5988V25.1504H13.1202C13.4964 25.1504 13.7816 25.0845 13.9759 24.9529C14.1703 24.8213 14.2674 24.6269 14.2674 24.3699C14.2674 24.1129 14.1703 23.9217 13.9759 23.7963C13.7816 23.6647 13.4964 23.5988 13.1202 23.5988H11.6063ZM13.3835 27.8867C13.7847 27.8867 14.0856 27.8208 14.2862 27.6892C14.4931 27.5575 14.5965 27.3538 14.5965 27.078C14.5965 26.5326 14.1922 26.2599 13.3835 26.2599H11.6063V27.8867H13.3835Z" fill="white"/>
<path d="M21.6173 27.6234H18.5613L17.9783 29.0338H16.4174L19.3512 22.4517H20.8557L23.7988 29.0338H22.2003L21.6173 27.6234ZM21.1378 26.4668L20.094 23.9468L19.0503 26.4668H21.1378Z" fill="white"/>
<path d="M27.5399 29.1467C26.8692 29.1467 26.2611 29.0025 25.7157 28.7141C25.1766 28.4195 24.7504 28.0152 24.4369 27.5011C24.1298 26.9808 23.9762 26.3947 23.9762 25.7428C23.9762 25.0908 24.1298 24.5078 24.4369 23.9938C24.7504 23.4735 25.1766 23.0691 25.7157 22.7808C26.2611 22.4862 26.8723 22.3388 27.5493 22.3388C28.1198 22.3388 28.6338 22.4391 29.0915 22.6397C29.5553 22.8403 29.944 23.1287 30.2574 23.5048L29.2795 24.4075C28.8344 23.8935 28.2828 23.6365 27.6246 23.6365C27.2171 23.6365 26.8535 23.7274 26.5338 23.9092C26.2141 24.0847 25.9634 24.3323 25.7816 24.652C25.606 24.9717 25.5183 25.3353 25.5183 25.7428C25.5183 26.1502 25.606 26.5138 25.7816 26.8335C25.9634 27.1532 26.2141 27.404 26.5338 27.5858C26.8535 27.7613 27.2171 27.849 27.6246 27.849C28.2828 27.849 28.8344 27.5889 29.2795 27.0686L30.2574 27.9713C29.944 28.3537 29.5553 28.6452 29.0915 28.8458C28.6276 29.0464 28.1104 29.1467 27.5399 29.1467Z" fill="white"/>
<path d="M33.6839 26.448L32.8 27.3695V29.0338H31.2861V22.4517H32.8V25.5265L35.715 22.4517H37.4075L34.6806 25.3854L37.5674 29.0338H35.7902L33.6839 26.448Z" fill="white"/>
</g>
<defs>
<linearGradient id="paint0_linear_0_579" x1="11.5233" y1="1.3459" x2="40.0667" y2="41.3845" gradientUnits="userSpaceOnUse">
<stop stop-color="#53535E"/>
<stop offset="0.6284" stop-color="#36353E"/>
<stop offset="1" stop-color="#292830"/>
</linearGradient>
<linearGradient id="paint1_linear_0_579" x1="17.9965" y1="25.2702" x2="27.6859" y2="46.0491" gradientUnits="userSpaceOnUse">
<stop stop-color="#62B3E9"/>
<stop offset="0.4488" stop-color="#5498DE"/>
<stop offset="1" stop-color="#457BD3"/>
</linearGradient>
<linearGradient id="paint2_linear_0_579" x1="25.395" y1="-2.78873" x2="35.1497" y2="18.1303" gradientUnits="userSpaceOnUse">
<stop stop-color="#62B3E9"/>
<stop offset="0.4488" stop-color="#5498DE"/>
<stop offset="1" stop-color="#457BD3"/>
</linearGradient>
<linearGradient id="paint3_linear_0_579" x1="2.42307" y1="1.4311" x2="6.46433" y2="10.0976" gradientUnits="userSpaceOnUse">
<stop stop-color="#62B3E9"/>
<stop offset="0.4488" stop-color="#5498DE"/>
<stop offset="1" stop-color="#457BD3"/>
</linearGradient>
<linearGradient id="paint4_linear_0_579" x1="2.3737" y1="8.70458" x2="4.05092" y2="12.3011" gradientUnits="userSpaceOnUse">
<stop stop-color="#62B3E9"/>
<stop offset="0.4488" stop-color="#5498DE"/>
<stop offset="1" stop-color="#457BD3"/>
</linearGradient>
<linearGradient id="paint5_linear_0_579" x1="46.8813" y1="37.35" x2="50.9225" y2="46.0165" gradientUnits="userSpaceOnUse">
<stop stop-color="#62B3E9"/>
<stop offset="0.4488" stop-color="#5498DE"/>
<stop offset="1" stop-color="#457BD3"/>
</linearGradient>
<linearGradient id="paint6_linear_0_579" x1="49.2915" y1="35.1466" x2="50.9687" y2="38.7431" gradientUnits="userSpaceOnUse">
<stop stop-color="#62B3E9"/>
<stop offset="0.4488" stop-color="#5498DE"/>
<stop offset="1" stop-color="#457BD3"/>
</linearGradient>
<clipPath id="clip0_0_579">
<rect width="55" height="47.3581" fill="white"/>
</clipPath>
</defs>
</svg>
