<svg width="58" height="53" viewBox="0 0 58 53" fill="none" xmlns="http://www.w3.org/2000/svg">
<g clip-path="url(#clip0_0_355)">
<path d="M17.1287 39.47L19.2123 37.3991C19.5715 37.0421 19.5715 36.4708 19.2123 36.1239L8.26092 25.2288C3.53963 20.5361 3.53963 12.9055 8.26092 8.22301C12.9822 3.53035 20.6594 3.53035 25.3705 8.22301L36.1268 18.9141C36.4655 19.2508 37.0095 19.2508 37.3482 18.9141L39.4522 16.8228C39.7909 16.4862 39.7909 15.9353 39.4522 15.5884L28.7062 4.89734C22.1477 -1.62138 11.4734 -1.62138 4.91496 4.89734C-1.64353 11.4161 -1.64353 22.0255 4.91496 28.5443L15.9074 39.47C16.2461 39.8066 16.79 39.8066 17.1287 39.47Z" fill="#08486C"/>
<path d="M23.4638 40.3454L28.996 45.8439L49.6465 25.3186C51.9147 23.0641 53.249 20.0241 53.2798 16.8412C53.3106 13.587 52.0482 10.5164 49.7388 8.22103C45.6642 4.17106 39.352 3.53857 34.5691 6.65001C34.3741 6.77242 34.1278 6.75202 33.9636 6.5888L31.3874 4.05884C31.1205 3.7936 31.1411 3.35494 31.4284 3.12031C31.5003 3.0591 31.5413 3.0285 31.5413 3.0285C34.7436 0.794382 38.6541 -0.256366 42.5748 0.0700804C46.5366 0.396526 50.2725 2.11037 53.0848 4.90556C56.2665 8.06801 58.0114 12.2608 58.0114 16.729C58.0114 21.1973 56.2665 25.39 53.0848 28.5525L28.996 52.4749L20.0563 43.5894C19.851 43.3854 19.851 43.0589 20.0563 42.8549L22.5812 40.3454C22.8275 40.1005 23.2175 40.1005 23.4638 40.3454Z" fill="#9B3773"/>
<path d="M28.1021 36.2354L26.4291 37.8982C25.9672 38.3573 25.2283 38.3573 24.7767 37.8982L10.8386 24.0548C10.3767 23.5958 10.3767 22.8613 10.8386 22.4124L12.5116 20.7496C12.9734 20.2905 13.7124 20.2905 14.164 20.7496L28.0918 34.5929C28.5537 35.052 28.5537 35.7865 28.1021 36.2354Z" fill="#08486C"/>
<path d="M32.9238 31.4395L31.2509 33.1023C30.789 33.5614 30.05 33.5614 29.5984 33.1023L15.6706 19.2589C15.2088 18.7999 15.2088 18.0654 15.6706 17.6165L17.3436 15.9537C17.8055 15.4946 18.5444 15.4946 18.996 15.9537L32.9238 29.7868C33.3857 30.2459 33.3857 30.9804 32.9238 31.4395Z" fill="#08486C"/>
<path d="M37.9121 26.4829L36.2392 28.1457C35.7773 28.6048 35.0383 28.6048 34.5867 28.1457L20.6589 14.3024C20.197 13.8433 20.197 13.1088 20.6589 12.66L22.3319 10.9971C22.7937 10.5381 23.5327 10.5381 23.9843 10.9971L37.9121 24.8405C38.374 25.2893 38.374 26.0238 37.9121 26.4829Z" fill="#08486C"/>
</g>
<defs>
<clipPath id="clip0_0_355">
<rect width="58" height="52.4762" fill="white"/>
</clipPath>
</defs>
</svg>
