<svg width="50" height="52" viewBox="0 0 50 52" fill="none" xmlns="http://www.w3.org/2000/svg">
<g clip-path="url(#clip0_0_293)">
<path d="M26.1048 6.17181C25.3125 5.9494 24.5063 5.72699 23.7 5.53239C21.1563 4.92076 18.5013 4.78176 15.888 4.92076C10.3417 5.21267 7.92301 8.10397 9.84128 10.8146C11.7595 13.5252 14.1782 16.3053 11.551 18.9185C8.92384 21.5318 -0.945491 23.8393 0.0692437 28.4682C1.07008 33.097 9.93858 33.7782 9.22966 36.7668C8.52073 39.7554 3.98918 40.6311 6.21325 44.6761C8.42343 48.7212 16.583 45.1626 19.2102 47.2755C21.8235 49.4023 23.2413 51.1398 27.5644 51.8071C31.9013 52.4882 35.015 47.1782 39.6578 45.1487C44.2866 43.1193 49.0267 42.452 49.9302 37.7259C50.8338 32.9997 42.1738 29.9138 42.5769 25.0904C42.7715 22.6856 44.4256 20.7951 45.7184 18.8768C47.8869 15.6241 49.68 9.75813 44.8844 7.82596C42.7993 6.99194 40.4084 7.21434 38.2121 7.26994C35.9325 7.32555 33.5555 7.57576 31.2897 7.32555C29.5243 7.11704 27.8146 6.64442 26.1048 6.17181Z" fill="#C6FF00"/>
<path opacity="0.7" d="M26.1048 6.17181C25.3125 5.9494 24.5063 5.72699 23.7 5.53239C21.1563 4.92076 18.5013 4.78176 15.888 4.92076C10.3417 5.21267 7.92301 8.10397 9.84128 10.8146C11.7595 13.5252 14.1782 16.3053 11.551 18.9185C8.92384 21.5318 -0.945491 23.8393 0.0692437 28.4682C1.07008 33.097 9.93858 33.7782 9.22966 36.7668C8.52073 39.7554 3.98918 40.6311 6.21325 44.6761C8.42343 48.7212 16.583 45.1626 19.2102 47.2755C21.8235 49.4023 23.2413 51.1398 27.5644 51.8071C31.9013 52.4882 35.015 47.1782 39.6578 45.1487C44.2866 43.1193 49.0267 42.452 49.9302 37.7259C50.8338 32.9997 42.1738 29.9138 42.5769 25.0904C42.7715 22.6856 44.4256 20.7951 45.7184 18.8768C47.8869 15.6241 49.68 9.75813 44.8844 7.82596C42.7993 6.99194 40.4084 7.21434 38.2121 7.26994C35.9325 7.32555 33.5555 7.57576 31.2897 7.32555C29.5243 7.11704 27.8146 6.64442 26.1048 6.17181Z" fill="white"/>
<path d="M34.3243 6.32471C34.3243 6.32471 34.2826 6.33861 34.1992 6.38031" stroke="#263238" stroke-linecap="round" stroke-linejoin="round"/>
<path d="M33.8231 6.55908C30.5565 8.08813 12.2357 16.6786 7.5512 19.0278C2.39412 21.6133 1.92151 27.5905 11.0958 25.5193C16.9618 24.1988 39.8837 19.9452 42.6777 24.4907C45.4022 28.9388 41.9827 33.3314 36.77 34.8465" stroke="#263238" stroke-linecap="round" stroke-linejoin="round" stroke-dasharray="2 2"/>
<path d="M36.5453 34.9028C36.5036 34.9167 36.4619 34.9306 36.4062 34.9445" stroke="#263238" stroke-linecap="round" stroke-linejoin="round"/>
<path d="M45.8724 41.2706C45.8724 41.2706 44.5241 42.7441 39.5338 45.691C34.5435 48.6379 22.6308 52.1547 14.235 50.4588C5.83908 48.763 17.5294 43.2028 25.5777 40.7007" stroke="#263238" stroke-miterlimit="10" stroke-linecap="round" stroke-linejoin="round" stroke-dasharray="2 2"/>
<path d="M41.3258 1.59863L32.6797 2.57167L34.8621 4.19802L41.3258 1.59863Z" fill="white" stroke="#263238" stroke-miterlimit="10" stroke-linecap="round" stroke-linejoin="round"/>
<path d="M34.8614 4.19802L34.8475 5.97728L41.3251 1.59863L34.8614 4.19802Z" fill="white" stroke="#263238" stroke-miterlimit="10" stroke-linecap="round" stroke-linejoin="round"/>
<path d="M34.8475 5.97728L35.8622 4.54553L41.3251 1.59863L34.8475 5.97728Z" fill="white" stroke="#263238" stroke-miterlimit="10" stroke-linecap="round" stroke-linejoin="round"/>
<path d="M35.8636 4.54553L38.7132 6.67231L41.3265 1.59863L35.8636 4.54553Z" fill="white" stroke="#263238" stroke-miterlimit="10" stroke-linecap="round" stroke-linejoin="round"/>
<path d="M45.8726 35.1543C44.566 35.1543 43.5234 36.2107 43.5234 37.5035C43.5234 38.8101 45.8726 41.2566 45.8726 41.2566C45.8726 41.2566 48.2218 38.7962 48.2218 37.5035C48.2218 36.2107 47.1654 35.1543 45.8726 35.1543ZM45.8726 38.3514C45.3305 38.3514 44.8857 37.9066 44.8857 37.3645C44.8857 36.8224 45.3305 36.3775 45.8726 36.3775C46.4147 36.3775 46.8595 36.8224 46.8595 37.3645C46.8595 37.9066 46.4147 38.3514 45.8726 38.3514Z" fill="#263238" stroke="#263238" stroke-miterlimit="10" stroke-linecap="round" stroke-linejoin="round"/>
<path d="M16.7096 3.55857C15.6253 2.98866 14.1797 2.87745 12.8591 3.26666C11.5247 3.65588 10.357 4.54551 9.75932 5.62975C9.66201 5.79655 9.73152 6.01896 9.89832 6.11626C9.98173 6.15796 10.079 6.17186 10.1763 6.14406C10.2597 6.11626 10.3431 6.06066 10.3848 5.97726C10.8992 5.05983 11.8861 4.2953 13.0537 3.96169C14.2075 3.62808 15.4446 3.71148 16.362 4.198C16.5428 4.2953 16.7513 4.2258 16.8486 4.04509C16.9459 3.86439 16.8764 3.64198 16.7096 3.55857Z" fill="#263238"/>
<path d="M16.0554 4.82505C15.2075 4.44974 14.2206 4.40803 13.2753 4.68604C12.3162 4.96405 11.51 5.54787 10.9957 6.3263C10.8845 6.49311 10.9262 6.71551 11.093 6.82672C11.1903 6.88232 11.2876 6.89622 11.3849 6.86842C11.4683 6.84062 11.5378 6.79892 11.5795 6.71551C11.9965 6.07609 12.6637 5.58957 13.456 5.36717C14.2345 5.13086 15.0546 5.17256 15.7496 5.47837C15.9303 5.56177 16.1388 5.47837 16.2222 5.29766C16.3195 5.11696 16.2361 4.90845 16.0554 4.82505Z" fill="#263238"/>
<path d="M15.4027 6.08835C14.8328 5.85205 14.2212 5.82424 13.6513 5.99105C13.0535 6.17176 12.5531 6.54707 12.1917 7.07529C12.0805 7.24209 12.1222 7.4645 12.289 7.5757C12.3863 7.63131 12.4975 7.64521 12.5948 7.61741C12.6782 7.5896 12.7477 7.5479 12.7894 7.4784C13.0535 7.07529 13.4288 6.81118 13.8459 6.67217C14.2629 6.54707 14.6938 6.57487 15.1247 6.74168C15.3054 6.81118 15.5139 6.72778 15.5834 6.54707C15.6807 6.36636 15.5834 6.15786 15.4027 6.08835Z" fill="#263238"/>
<path d="M14.0144 7.19921C13.5556 7.33821 13.3054 7.81083 13.4305 8.26954C13.5695 8.72826 14.0422 8.97847 14.5009 8.85336C14.9596 8.71436 15.2098 8.24174 15.0847 7.78303C14.9457 7.32431 14.4731 7.0602 14.0144 7.19921Z" fill="#263238"/>
<path d="M45.8194 11.3291H39.6058C39.0915 11.3291 38.6884 11.7461 38.6884 12.2465V15.5687C38.6884 16.0831 39.1054 16.4862 39.6058 16.4862H39.8005C39.6058 16.9171 39.2305 17.5704 38.6328 17.9596C38.6328 17.9596 39.8978 17.8762 41.2044 16.4862H45.8055C46.3198 16.4862 46.7229 16.0692 46.7229 15.5687V12.2465C46.7368 11.7461 46.3198 11.3291 45.8194 11.3291Z" fill="#263238" stroke="#263238" stroke-miterlimit="10" stroke-linecap="round" stroke-linejoin="round"/>
<path d="M41.6366 13.7895C41.6366 13.5254 41.4281 13.3169 41.164 13.3169C40.8999 13.3169 40.6914 13.5254 40.6914 13.7895C40.6914 14.0536 40.8999 14.2621 41.164 14.2621C41.4281 14.2621 41.6366 14.0536 41.6366 13.7895Z" fill="white"/>
<path d="M42.7773 14.2621C43.0383 14.2621 43.2499 14.0505 43.2499 13.7895C43.2499 13.5285 43.0383 13.3169 42.7773 13.3169C42.5163 13.3169 42.3047 13.5285 42.3047 13.7895C42.3047 14.0505 42.5163 14.2621 42.7773 14.2621Z" fill="white"/>
<path d="M44.8593 13.7895C44.8593 13.5254 44.6508 13.3169 44.3867 13.3169C44.1226 13.3169 43.9141 13.5254 43.9141 13.7895C43.9141 14.0536 44.1226 14.2621 44.3867 14.2621C44.6508 14.2621 44.8593 14.0536 44.8593 13.7895Z" fill="white"/>
<path d="M3.07928 31.8483C4.43159 31.7152 5.4199 30.5109 5.28672 29.1586C5.15355 27.8063 3.94932 26.818 2.59701 26.9512C1.2447 27.0844 0.256397 28.2886 0.389572 29.6409C0.522747 30.9932 1.72697 31.9815 3.07928 31.8483Z" fill="#263238" stroke="#263238" stroke-miterlimit="10" stroke-linecap="round" stroke-linejoin="round"/>
<path d="M1.72656 27.8564L4.38155 29.3993L1.72656 30.9284V27.8564Z" fill="white" stroke="#263238" stroke-miterlimit="10" stroke-linecap="round" stroke-linejoin="round"/>
<path d="M8.68976 47.9969C8.18935 47.9969 7.81403 47.8718 7.46652 47.6633C5.71506 46.6068 4.67253 45.05 4.24161 43.0622C4.14431 42.6591 4.10261 42.2282 4.19991 41.8251C4.38062 41.1023 4.83933 40.6157 5.56216 40.4211C5.84017 40.3516 6.10428 40.4489 6.20158 40.713C6.36839 41.1718 6.50739 41.6305 6.61859 42.1031C6.6742 42.3255 6.53519 42.5062 6.34058 42.6035C6.13208 42.7008 5.92357 42.7981 5.71506 42.8815C5.54826 42.951 5.52046 43.0483 5.57606 43.2012C5.97917 44.3272 6.61859 45.3141 7.48042 46.1481C7.60553 46.2732 7.70283 46.2454 7.81403 46.1203C7.96694 45.9535 8.11984 45.8006 8.30055 45.6616C8.50906 45.5087 8.73147 45.4948 8.93997 45.6477C9.27358 45.8979 9.60719 46.1481 9.8991 46.44C10.2466 46.7875 10.2327 47.1212 9.8713 47.4548C9.52379 47.844 9.09288 47.9969 8.68976 47.9969Z" fill="#263238" stroke="#263238" stroke-miterlimit="10" stroke-linecap="round" stroke-linejoin="round"/>
<path d="M11.1661 43.9379C11.1383 44.1603 11.1244 44.3827 11.0827 44.6051C11.041 44.8414 10.8742 44.9387 10.6657 44.8831C10.485 44.8414 10.3877 44.6746 10.4294 44.4383C10.5406 43.7989 10.4572 43.1872 10.1375 42.6173C9.74826 41.9084 9.16444 41.4497 8.38601 41.2551C8.33041 41.2412 8.26091 41.2273 8.2053 41.1995C8.0524 41.13 7.969 40.991 8.0107 40.8242C8.0524 40.6435 8.1914 40.5184 8.37211 40.5601C8.67792 40.6296 8.98373 40.713 9.26174 40.852C10.4155 41.4358 11.1383 42.6312 11.1661 43.9379Z" fill="#263238" stroke="#263238" stroke-miterlimit="10" stroke-linecap="round" stroke-linejoin="round"/>
<path d="M10.0089 44.1047C9.99503 44.1881 9.98113 44.3549 9.95333 44.5078C9.91163 44.7163 9.74483 44.8275 9.56412 44.7997C9.36951 44.7719 9.27221 44.6051 9.28611 44.3827C9.30001 44.1742 9.32781 43.9657 9.30001 43.7711C9.17491 43.0066 8.71619 42.5061 7.96556 42.2976C7.71536 42.2281 7.59025 42.0752 7.64585 41.8806C7.68756 41.6721 7.88216 41.5748 8.13237 41.6304C9.18881 41.8667 10.0089 42.9093 10.0089 44.1047Z" fill="#263238" stroke="#263238" stroke-miterlimit="10" stroke-linecap="round" stroke-linejoin="round"/>
<path d="M8.17717 44.2161C8.20497 43.7852 7.99646 43.4933 7.57945 43.3682C7.34314 43.2987 7.23194 43.1319 7.28754 42.9234C7.34314 42.7288 7.52385 42.6454 7.77405 42.701C8.49688 42.8817 8.9695 43.6184 8.84439 44.3413C8.80269 44.5915 8.67759 44.7027 8.46908 44.6749C8.26057 44.6471 8.16327 44.5081 8.17717 44.2578C8.16327 44.2578 8.17717 44.244 8.17717 44.2161Z" fill="#263238" stroke="#263238" stroke-miterlimit="10" stroke-linecap="round" stroke-linejoin="round"/>
<path d="M6.14844 42.395L6.21794 42.6174" stroke="white" stroke-miterlimit="10" stroke-linecap="round" stroke-linejoin="round"/>
<path d="M5.49219 40.5752L6.04821 42.146" stroke="white" stroke-miterlimit="10" stroke-linecap="round" stroke-linejoin="round"/>
<path d="M8.63281 46.1621L9.98116 47.3436" stroke="white" stroke-miterlimit="10" stroke-linecap="round" stroke-linejoin="round"/>
<path d="M8.26172 45.8408L8.48413 46.0354" stroke="white" stroke-miterlimit="10" stroke-linecap="round" stroke-linejoin="round"/>
<path d="M37.2114 44.8444L23.3526 46.999C22.4352 47.138 21.49 46.3735 21.2537 45.2753L14.0671 11.9003C13.6501 10.3295 15.068 9.48161 15.9854 9.34261L29.1491 7.49385C30.0666 7.35484 31.0118 8.11937 31.2481 9.21751L39.3799 42.5369C39.6162 43.6351 39.0324 44.5664 37.2114 44.8444Z" fill="white" stroke="#263238" stroke-miterlimit="10" stroke-linecap="round" stroke-linejoin="round"/>
<path d="M38.1567 44.4538L24.3118 46.6223C23.3944 46.7613 22.4491 45.9967 22.2128 44.8986L15.0124 11.5236C14.7761 10.4254 15.3321 9.4246 16.2495 9.2717L30.0944 7.10322C31.0118 6.96422 31.9571 7.72874 32.1934 8.82688L39.3799 42.2019C39.6301 43.314 39.0741 44.3148 38.1567 44.4538Z" fill="#263238" stroke="#263238" stroke-miterlimit="10" stroke-linecap="round" stroke-linejoin="round"/>
<path d="M38.2281 40.4907L22.5901 42.9372L16.043 12.5646L31.681 10.1182L38.2281 40.4907Z" fill="#C6FF00" stroke="#263238" stroke-miterlimit="10" stroke-linecap="round" stroke-linejoin="round"/>
<path d="M24.9229 19.543C25.0758 20.3075 24.9785 20.9748 24.7005 21.0304C24.4225 21.086 24.061 20.5021 23.9081 19.7376C23.7552 18.9731 23.8525 18.3059 24.1305 18.2503C24.4225 18.1947 24.77 18.7646 24.9229 19.543Z" fill="#263238"/>
<path d="M28.3567 18.8896C28.5096 19.6541 28.4123 20.3214 28.1343 20.377C27.8563 20.4326 27.4949 19.8488 27.3419 19.0842C27.189 18.3197 27.2863 17.6525 27.5644 17.5969C27.8563 17.5552 28.2038 18.1251 28.3567 18.8896Z" fill="#263238"/>
<path d="M22.5742 22.8373C23.6307 24.6305 25.4655 25.6869 27.2726 25.3533C29.0518 25.0197 30.3168 23.435 30.6087 21.4473" stroke="#263238" stroke-miterlimit="10" stroke-linecap="round" stroke-linejoin="round"/>
<path d="M19.9455 23.8379L19.2227 25.2974" stroke="white" stroke-miterlimit="10"/>
<path d="M25.9237 11.6348L20.5859 22.5327" stroke="white" stroke-miterlimit="10"/>
<path d="M24.2406 11.7321L22.0165 15.9996" stroke="white" stroke-miterlimit="10"/>
<path d="M34.7087 35.9189L32.2344 40.8119" stroke="white" stroke-miterlimit="10"/>
<path d="M35.8605 33.6543L35.082 35.1833" stroke="white" stroke-miterlimit="10"/>
<path d="M25.7164 9.61921L21.4073 10.2864C21.2405 10.3142 21.0737 10.1752 21.0181 9.96672C20.9764 9.77212 21.0737 9.57751 21.2405 9.54971L25.5635 8.86858C25.7303 8.84078 25.8972 8.97979 25.9528 9.1883C25.9945 9.4107 25.8833 9.59141 25.7164 9.61921Z" fill="white" stroke="#263238" stroke-miterlimit="10" stroke-linecap="round" stroke-linejoin="round"/>
<path d="M31.2636 42.9924C31.1802 42.631 30.8744 42.3668 30.5686 42.4224C30.2628 42.4641 30.0821 42.8117 30.1516 43.1731C30.235 43.5345 30.5408 43.7986 30.8466 43.743C31.1524 43.6874 31.3331 43.3538 31.2636 42.9924Z" fill="white" stroke="#263238" stroke-miterlimit="10" stroke-linecap="round" stroke-linejoin="round"/>
<path d="M29.3993 31.9278L23.019 33.0259C22.602 33.0954 22.324 33.4429 22.3935 33.7904L23.2136 37.7521L23.2414 37.8494L23.6723 39.9206L24.8677 38.2247L30.5113 37.2517C30.9283 37.1822 31.2064 36.8346 31.1369 36.4871L30.2889 32.4143C30.2194 32.0807 29.8163 31.8583 29.3993 31.9278Z" fill="white" stroke="#263238" stroke-miterlimit="10"/>
<path d="M28.9422 34.3186C28.9422 34.2352 28.9422 34.1796 28.9283 34.1518C28.9283 34.1379 28.9283 34.1379 28.9283 34.124C28.8171 33.5958 28.2194 33.2622 27.5939 33.3734C27.0935 33.4568 26.7321 33.7904 26.6626 34.1935C26.4263 33.846 25.9536 33.6653 25.4671 33.7487C24.8416 33.8599 24.4246 34.3743 24.5219 34.8886C24.5219 34.8886 24.508 35.3334 25.5644 35.9867C26.4402 36.5288 27.1769 36.9597 27.1908 36.9458C27.2047 36.9597 27.7468 36.3064 28.3584 35.5141C28.692 35.0832 28.8449 34.7635 28.9005 34.5411C28.9144 34.4994 28.9283 34.4438 28.9283 34.3882C28.9422 34.3464 28.9422 34.3325 28.9422 34.3186Z" fill="#C6FF00" stroke="#263238" stroke-miterlimit="10" stroke-linecap="round" stroke-linejoin="round"/>
</g>
<defs>
<clipPath id="clip0_0_293">
<rect width="50" height="51.8627" fill="white"/>
</clipPath>
</defs>
</svg>
